<svg width="171" height="38" viewBox="0 0 171 38" fill="none" xmlns="http://www.w3.org/2000/svg">
<path d="M122.362 31.6532C122.362 31.4056 122.148 31.2186 121.864 31.2186H121.745V32.088H121.864C122.148 32.088 122.362 31.9008 122.362 31.6532ZM122.888 31.6532C122.888 32.1916 122.438 32.6128 121.864 32.6128H121.219V30.6938H121.864C122.438 30.6938 122.888 31.1153 122.888 31.6532ZM124.414 34.0303L124.657 33.8962C124.696 33.8733 125.664 33.3 125.664 31.6532C125.664 29.8198 124.315 28.81 121.864 28.81C120.399 28.81 118.994 28.8864 118.444 28.9199V37.285H121.219V34.3693H121.769L123.292 37.285H126.467L124.414 34.0303ZM125.138 34.1933L127.419 37.8102H122.974L121.745 35.4591V37.8102H117.918V28.4295L118.162 28.4123C118.179 28.4109 119.971 28.2853 121.864 28.2853C124.613 28.2853 126.19 29.5126 126.19 31.6532C126.19 33.1243 125.506 33.8891 125.138 34.1933V34.1933ZM107.584 33.9893L107.458 33.345L107.333 33.9893H107.584ZM107.717 31.9194L108.222 34.5141H106.695L107.2 31.9194H107.717ZM111.869 37.285C111.242 35.1501 109.734 30.01 109.42 28.9363H105.497L103.048 37.285H106.163L106.418 36.0173H108.499L108.753 37.285H111.869ZM112.472 37.4738L112.571 37.8102H108.322L108.068 36.5426H106.849L106.594 37.8102H102.346L105.103 28.4114H109.822L109.871 28.6101C109.909 28.7419 112.447 37.3866 112.472 37.4738V37.4738ZM93.9061 28.9363L92.994 33.9188H92.4762L91.5633 28.9363H88.4459L90.7758 37.285H94.6935L97.0239 28.9363H93.9061ZM93.4679 28.4114H97.7158L95.0931 37.8102H90.3766L87.754 28.4114H92.0014L92.7353 32.4123L93.4679 28.4114ZM78.5742 33.1106C78.5742 32.393 78.0866 31.8523 77.4402 31.8523C76.7942 31.8523 76.3066 32.393 76.3066 33.1106C76.3066 33.8283 76.7942 34.3693 77.4402 34.3693C78.0866 34.3693 78.5742 33.8283 78.5742 33.1106V33.1106ZM79.0999 33.1106C79.0999 34.1112 78.3704 34.8941 77.4402 34.8941C76.5095 34.8941 75.7809 34.1112 75.7809 33.1106C75.7809 32.1109 76.5095 31.327 77.4402 31.327C78.3704 31.327 79.0999 32.1109 79.0999 33.1106ZM82.1293 33.1106C82.1293 30.5821 80.157 28.747 77.4402 28.747C74.7233 28.747 72.7515 30.5821 72.7515 33.1106C72.7515 35.6396 74.7233 37.4752 77.4402 37.4752C80.157 37.4752 82.1293 35.6396 82.1293 33.1106V33.1106ZM82.6554 33.1106C82.6554 35.8987 80.4134 38 77.4402 38C74.4674 38 72.2254 35.8987 72.2254 33.1106C72.2254 30.3238 74.4674 28.2216 77.4402 28.2216C80.4134 28.2216 82.6554 30.3238 82.6554 33.1106V33.1106ZM64.6333 34.0303L64.8756 33.8962C64.9153 33.8733 65.8832 33.3 65.8832 31.6532C65.8832 29.8198 64.5338 28.81 62.0827 28.81C60.6179 28.81 59.2133 28.8864 58.6629 28.9199V37.285H61.439V34.3693H61.9885L63.5116 37.285H66.686L64.6333 34.0303ZM65.3575 34.1933L67.6379 37.8102H63.1929L61.9646 35.4591V37.8102H58.1368V28.4295L58.3813 28.4123C58.3989 28.4109 60.19 28.2853 62.0827 28.2853C64.8322 28.2853 66.4093 29.5126 66.4093 31.6532C66.4093 33.1243 65.7249 33.8891 65.3575 34.1933V34.1933ZM62.5818 31.6532C62.5818 31.4056 62.3674 31.2186 62.0827 31.2186H61.9646V32.088H62.0827C62.3674 32.088 62.5818 31.9008 62.5818 31.6532ZM63.1075 31.6532C63.1075 32.1916 62.6574 32.6128 62.0827 32.6128H61.439V30.6938H62.0827C62.6574 30.6938 63.1075 31.1153 63.1075 31.6532ZM47.6218 31.7075H47.8031C48.0723 31.7075 48.239 31.5892 48.239 31.3994C48.239 31.2096 48.0723 31.0913 47.8031 31.0913H47.6218V31.7075ZM47.8031 32.2323H47.0961V30.5665H47.8031C48.3694 30.5665 48.7651 30.9091 48.7651 31.3994C48.7651 31.8898 48.3694 32.2323 47.8031 32.2323V32.2323ZM51.921 35.1391C51.921 33.4902 50.1852 33.1918 50.1114 33.1799L49.8899 33.1437L49.8895 32.6414L50.1021 32.599C50.1614 32.588 51.5403 32.3008 51.5403 31.0194C51.5403 29.615 50.1782 28.81 47.8031 28.81C46.2884 28.81 44.8732 28.8864 44.3206 28.9199V37.3012C44.8754 37.3349 46.3025 37.4116 47.8668 37.4116C50.481 37.4116 51.921 36.6049 51.921 35.1391ZM52.4467 35.1391C52.4467 36.1839 51.8516 37.9369 47.8668 37.9369C45.8494 37.9369 44.0567 37.8107 44.0391 37.8098L43.7947 37.7921V28.4295L44.0391 28.4123C44.0567 28.4109 45.8489 28.2853 47.8031 28.2853C51.7587 28.2853 52.0665 30.3781 52.0665 31.0194C52.0665 31.9834 51.4669 32.5647 50.8869 32.8687C51.627 33.1914 52.4467 33.8852 52.4467 35.1391V35.1391ZM48.3664 34.7591C48.3664 34.6672 48.3663 34.3879 47.8668 34.3879H47.6218V35.1298H47.8668C48.3663 35.1298 48.3664 34.8508 48.3664 34.7591ZM48.8925 34.7591C48.8925 35.192 48.6228 35.6551 47.8668 35.6551H47.0961V33.8628H47.8668C48.6228 33.8628 48.8925 34.3257 48.8925 34.7591V34.7591ZM160.5 14.4344L159.435 8.95985L158.368 14.4344H160.5ZM170.86 22.3422H162.024L161.414 19.3008H157.454L156.845 22.3422H148.01L154.255 1.05243H164.614C164.644 1.17416 170.86 22.3422 170.86 22.3422V22.3422ZM150.359 1.05243H130.86V8.04747H136.649V22.3422H144.57V8.04747H150.359V1.05243ZM121.222 12.4576C121.222 14.1303 120.156 15.1949 118.785 15.1949C117.414 15.1949 116.348 14.1303 116.348 12.4576V1.05243H108.427V12.4576C108.427 18.5405 112.692 22.7986 118.785 22.7986C124.878 22.7986 129.143 18.5405 129.143 12.4576V1.05243H121.222V12.4576ZM93.4104 15.9554H94.6285C96.9142 15.9554 98.2848 14.5867 98.2848 11.6975C98.2848 8.80798 96.9142 7.43976 94.6285 7.43976H93.4104V15.9554ZM94.6285 22.6463C89.7537 22.6463 85.489 22.3422 85.489 22.3422V1.05243C85.489 1.05243 89.7537 0.748292 94.6285 0.748292C102.733 0.748292 106.816 5.15828 106.816 11.6975C106.816 18.2364 102.733 22.6463 94.6285 22.6463ZM73.7175 14.4344L72.6516 8.95985L71.5852 14.4344H73.7175ZM77.8306 1.05243C77.8615 1.17416 84.0768 22.3422 84.0768 22.3422H75.2406L74.6314 19.3008H70.6709L70.0616 22.3422H61.2267L67.4721 1.05243H77.8306ZM59.5993 15.3472H51.3732V1.05243H43.4522V22.3422H59.5993V15.3472ZM31.6804 14.4344L30.6145 8.95985L29.548 14.4344H31.6804ZM35.7933 1.05243C35.8242 1.17416 42.0388 22.3422 42.0388 22.3422H33.2037L32.5946 19.3008H28.6339L28.0248 22.3422H19.1896L25.4351 1.05243H35.7933ZM22.3802 1.05243L16.4399 22.3422H6.0806L0.14032 1.05243H8.97547L11.2604 13.5221L13.5452 1.05243H22.3802" fill="#EADFE0"/>
</svg>
